<svg id="Сгруппировать_16716" data-name="Сгруппировать 16716" xmlns="http://www.w3.org/2000/svg" xmlns:xlink="http://www.w3.org/1999/xlink" width="120.281" height="29.55" viewBox="0 0 120.281 29.55">
  <defs>
    <clipPath id="clip-path">
      <rect id="Прямоугольник_1860" data-name="Прямоугольник 1860" width="120.281" height="29.55" fill="#f4f3ec"/>
    </clipPath>
  </defs>
  <g id="Сгруппировать_16682" data-name="Сгруппировать 16682" clip-path="url(#clip-path)">
    <path id="Контур_204" data-name="Контур 204" d="M199.706,13.755c1.266.21,2.679,1.941,3.051,3.128.973,3.1.339,6.333-2.532,8.087,3.6,2.3,1.909,7.26,3.068,10.674l2.5.128V14.99c-1.531.666-2.114-1.235-1.341-1.235h11.238l-.192,1.146-1.433.413L216.565,28l.665,1.6,2.979-13.511-.223-1.071-1.414-.028V13.755h13.712c.84.556.529,5.95.308,6.174-1.166.153-.921-1.593-1.171-2.432a3.784,3.784,0,0,0-1.2-1.892,11.551,11.551,0,0,0-1.239-.615h-3.609v9.362l.342.285c2.355.308,2.556-2.366,2.545-4.092h.822a39.826,39.826,0,0,1,.009,8.548c-.028.228-.056.657-.32.712-.707.148-.481-1.458-.565-1.9-.3-1.6-1.1-2.9-2.834-1.9v9.774H229.4a11.809,11.809,0,0,0,1.122-.527c1.127-.785,1.548-4.109,1.457-5.442h.824v7.2H221.15l-.29-.331.069-.713,1.561-.19V14.99c-.855-.024-1.013.674-1.226,1.35l-4.51,20.795c-.247.625-.826.521-1.015-.078l-4.782-21.977c-.266-.192-2.211-.237-2.488.22V35.773h1.857v1.236H201.15c-1.722,0-1.263-4.654-1.332-5.667a31.633,31.633,0,0,0-.312-3.8,2.26,2.26,0,0,0-3.019-1.726,3.562,3.562,0,0,0-.193.813c-.063,2.374.137,4.8.235,7.195.026.63-.463,1.265.012,1.927l1.632.119.193,1.145h-6.289c-.127,0-.3-.335-.323-.515-.108-1.036,1.165-.677,1.869-.719V14.99l-1.659-.093a.735.735,0,0,1,.113-1.142c2.306.27,5.432-.364,7.629,0m-.579,1.71c-.432-.393-2.387-.771-2.627-.344a10.207,10.207,0,0,0-.2,1.2,54.336,54.336,0,0,0,0,7.425c.186,1.6,2.55.38,3.191-.539,1.084-1.554,1.09-6.421-.358-7.741" transform="translate(-112.556 -8.007)" fill="#f4f3ec"/>
    <path id="Контур_205" data-name="Контур 205" d="M73.695,35.038c.2.669,1.467.19,1.6-.465l4.192-20.921c.636-1.462,1.038-.469,1.294.531,1.507,5.876,2.364,12.186,3.691,18.129.224,1,.605,2,.795,3.012,1.084.167,1.507,0,1.632-1.106L86.862,14.8l-1.828-.234.03-1c.218-.358,4.309-.4,4.728.11l6.174,14.47c.064.065.41-.266.41-.308V15.284c0-.7-1.329-.8-1.857-.72l.092-1.042,4.459-.1.195,1.145c-.529-.08-1.857.018-1.857.72V36.273l-.512.308-.766-.884L88.491,18.214l-.568-.357c-.05,1.265.06,2.548.007,3.814-.157,3.789-.358,8.522-.166,12.286a7.77,7.77,0,0,0,.389,1.364l1.535.216.069.713-.29.331h-8.66l-.29-.331.069-.713,1.562-.19c.223-.226-.963-5.691-1.226-5.877-.744-.052-3.141-.4-3.478.258-.141.274-1.068,4.632-1.052,4.914.047.873,1.235.728,1.839.706-.008.4.137,1.049-.339,1.205L61.94,36.48c-1.2-1.6.745-.878,1.252-1.222l.2-20.351-1.635-.363-.043-.866c.22-.331.79-.328,1.146-.357,2.978-.241,6.273.2,9.288.008l.427.192a9.624,9.624,0,0,0,.295,1.558V19.5l-.846-.121c-.288-1.255-.083-2.3-.838-3.447-.972-1.476-3.522-1.606-5.121-1.165v9.157c0,.7,2.467.387,2.844-1.277.173-.761-.13-1.642.228-2.409l.846-.121v8.951l-.512.308c-.863-.581-.389-1.621-.566-2.524-.346-1.758-2.839-1.925-2.839-1.076v9.26l.309.308h3.093a17.142,17.142,0,0,0,1.691-.576,2.529,2.529,0,0,0,1.249-1.84c.158-.7.1-3.364.589-3.528l.7-.024Zm5.772-13.479c-.42-.054-.337-.035-.463.258a58.617,58.617,0,0,0-1.191,5.815c.062.92,2.844.514,2.909.174Z" transform="translate(-36.134 -7.581)" fill="#f4f3ec"/>
    <path id="Контур_206" data-name="Контур 206" d="M157.985,3.14c-.185-.6-1.968-.122-2.486-.4-.383-.268-.307-1.383.321-1.35,3.115.3,7.838-.772,10.518,1.027,6.013,4.035,6.153,21.669.5,26.015-2.852,2.19-7.787,1.1-11.191,1.326-.513-.168-.316-.97-.339-1.413l2.681-.2Zm3.092-.31c-.164,7.194-.446,14.5-.215,21.718.014.44.194.816.217,1.226.036.646-.362,1.571.093,2.374a4.208,4.208,0,0,0,5.1-2.54c2.011-4.3,2.286-16.593-.489-20.579a4.93,4.93,0,0,0-4.706-2.2" transform="translate(-91.145 -0.787)" fill="#f4f3ec"/>
    <path id="Контур_207" data-name="Контур 207" d="M5.953.028C8.6-.328,10.509,2.775,11.324,4.871a30.536,30.536,0,0,1-.154,20.12c-1.988,4.979-6.194,6.553-8.946,1.1C-.728,20.247-.885,8.3,2.624,2.676,3.2,1.746,4.85.177,5.953.028M5.744,1.471c-.718.215-1.748,2.465-1.95,3.2C2.613,8.943,2.25,23.333,4.685,26.93c1.912,2.825,3.557.54,4.245-1.705C10.438,20.3,10.582,8.873,8.841,4.058,8.331,2.65,7.6.913,5.744,1.471" transform="translate(0 0)" fill="#f4f3ec"/>
    <path id="Контур_208" data-name="Контур 208" d="M43.856,36.34l-.94-.193L42.824,34.9c-1.336.16-1.706,1.814-3.208,2.044-5.115.783-7.039-7.725-7.11-11.4s1.343-12.008,5.9-12.654c2.607-.37,3.016,1.851,4.107,2.05.652.128.148-1.287.311-1.445h1.032V21.01a.564.564,0,0,1-.933.108c-.106-.156-.368-2.962-.618-3.7-1.238-3.679-4.683-4.741-6.02-.462-1.139,3.642-1.359,14.62.883,17.728a2.028,2.028,0,0,0,2.574.947c1.913-.576,2.8-3.857,3.058-5.589.081-.534-.172-1.972.337-2.133.205-.107.718.137.718.305Z" transform="translate(-19.081 -7.544)" fill="#f4f3ec"/>
  </g>
</svg>
