<svg xmlns="http://www.w3.org/2000/svg" xmlns:xlink="http://www.w3.org/1999/xlink" width="137.635" height="36.292" viewBox="0 0 137.635 36.292">
  <defs>
    <clipPath id="clip-path">
      <rect id="Прямоугольник_1865" data-name="Прямоугольник 1865" width="137.635" height="36.292" fill="#171717"/>
    </clipPath>
  </defs>
  <g id="Сгруппировать_16698" data-name="Сгруппировать 16698" clip-path="url(#clip-path)">
    <path id="Контур_210" data-name="Контур 210" d="M247.4,2.023,257.989,0V11.206c1.478-.331,2.736-.7,4.021-.882a8.723,8.723,0,0,1,8.685,3.693c3.771,5.057,3.083,14.13-1.38,18.573a11.7,11.7,0,0,1-5.909,3.211c-4.324.919-8.568.27-12.934-.772,0-.806,0-1.565,0-2.324q.057-11.8.108-23.59c0-.77-.1-1.541-.151-2.312-.1-1.671-.587-3.041-2.52-3.349-.69-.11-.9-.544-.513-1.431m10.754,11.73v20.02a4.926,4.926,0,0,0,.672.221c1.935.278,3.476-.584,4.595-2.678a18.026,18.026,0,0,0,1.834-9.1,12.849,12.849,0,0,0-1.6-6.668c-1.309-2.128-3.071-2.7-5.5-1.794" transform="translate(-179.735)" fill="#171717"/>
    <path id="Контур_211" data-name="Контур 211" d="M17.993,35.965v1.482H0V35.94a15.42,15.42,0,0,1,1.606-.415,2.978,2.978,0,0,0,2.668-2.7,27.025,27.025,0,0,0,.484-4.465c-.011-6.409-.107-12.819-.188-19.228a7.094,7.094,0,0,0-.222-1.478C3.875,5.6,3.115,4.91,1.052,4.6.744,4.558.437,4.5.03,4.43V2.723H27.983V12.7l-1.555.461c-.282-.6-.5-1.084-.74-1.562A32.009,32.009,0,0,0,24.2,8.693,6,6,0,0,0,19.191,5.6c-1.981-.062-3.966-.013-6.155-.013V18.842c3.894,1.022,5.586.013,7.209-4.455l1.522-.159V26.12H20.251c-.307-.876-.545-1.705-.884-2.491a3.186,3.186,0,0,0-3.048-2.12c-1.085-.022-2.168-.121-3.191-.182-.122.151-.23.222-.227.29.13,3.537.132,7.086.457,10.606.227,2.457.927,2.945,3.323,3.425.4.079.789.189,1.312.317" transform="translate(0 -1.98)" fill="#171717"/>
    <path id="Контур_212" data-name="Контур 212" d="M99.414,62.544c-4.942-.006-9.441-4.207-10.035-10.908a18,18,0,0,1,.559-6.881A11.774,11.774,0,0,1,101.2,36.247c4.318-.1,8.134,1.07,10.412,4.952a15.018,15.018,0,0,1,.031,15.948c-2.278,3.924-6.034,5.466-12.233,5.4m6.7-12.238c-.227-2.337-.348-4.334-.634-6.307a8.126,8.126,0,0,0-2.148-4.764,2.7,2.7,0,0,0-4.345.323,8.677,8.677,0,0,0-1.269,2.974A32.7,32.7,0,0,0,97.5,54.449a9.928,9.928,0,0,0,1.9,4.9,2.67,2.67,0,0,0,4.345.205,6.246,6.246,0,0,0,1.44-2.712c.46-2.257.665-4.566.93-6.535" transform="translate(-64.912 -26.35)" fill="#171717"/>
    <path id="Контур_213" data-name="Контур 213" d="M369.558,56.723c.992.619.79,1.22.217,1.855a11.452,11.452,0,0,1-7.359,3.783c-6.969.822-12.545-3.234-13.721-10.113A15.349,15.349,0,0,1,350.1,42.3a11.794,11.794,0,0,1,13.963-5.713c3.806,1.17,5.574,4.172,6.33,7.865.234,1.143.265,2.328.421,3.8H356.1c.032,3.164.541,5.925,2.8,8.11a7.558,7.558,0,0,0,5.345,1.994,9.823,9.823,0,0,0,5.314-1.631M356.211,45.888h6.772A13.161,13.161,0,0,0,362.174,40c-.894-2.2-2.752-2.441-4.125-.509a11.164,11.164,0,0,0-1.839,6.4" transform="translate(-253.33 -26.218)" fill="#171717"/>
    <path id="Контур_214" data-name="Контур 214" d="M435.365,61.025V53.539l1.1-.328a6.663,6.663,0,0,1,.42.592c.7,1.27,1.289,2.611,2.1,3.8a5.07,5.07,0,0,0,5.4,2.072,3.045,3.045,0,0,0,2.57-2.336,2.987,2.987,0,0,0-1.029-3.539,17.165,17.165,0,0,0-2.615-1.444c-1.024-.487-2.1-.862-3.132-1.337-2.518-1.161-4.2-2.952-4.455-5.865a7.483,7.483,0,0,1,3.626-7.414c2.632-1.7,5.592-1.778,8.562-1.43,1.6.188,3.167.649,4.874,1.013v6.886l-1.194.37c-.471-1.005-.872-1.909-1.313-2.793a5.7,5.7,0,0,0-3.134-3.065c-1.885-.683-3.577-.155-4.365,1.375a3.167,3.167,0,0,0,1.2,4.395,33.459,33.459,0,0,0,3.354,1.8c1.406.735,2.875,1.371,4.209,2.218a5.8,5.8,0,0,1,2.578,4.723c.507,6.013-3.792,8.644-7.852,9.154a22.4,22.4,0,0,1-9.834-.9c-.3-.1-.58-.243-1.082-.457" transform="translate(-316.539 -26.28)" fill="#171717"/>
    <path id="Контур_215" data-name="Контур 215" d="M177.937,61.671a5.089,5.089,0,0,1-.151-.8,4.2,4.2,0,0,1,.1-.621c.109-.1.171-.2.244-.211,2.279-.258,3-1.745,3-3.8-.007-4.544,0-9.089-.039-13.633-.014-1.761-.742-2.975-2.694-3.1a3.273,3.273,0,0,1-.755-.349c.236-.406.388-1.025.664-1.087,3.4-.758,6.819-1.435,10.361-2.158v4.8c2.454-3.787,5.353-5.835,9.959-4.09l-2.6,6.979c-2.522-.971-4.934-2-7.221-.13,0,4.556-.114,9.009.047,13.452.083,2.307.615,2.6,2.951,2.914.266.036.525.115.842.186a3.99,3.99,0,0,1,.156.646,7.555,7.555,0,0,1-.073.948c-4.907.187-9.805.1-14.787.05" transform="translate(-129.155 -26.115)" fill="#171717"/>
  </g>
</svg>
